{
    "asset" : {
        "generator" : "Khronos glTF Blender I/O v1.5.17",
        "version" : "2.0"
    },
    "scene" : 0,
    "scenes" : [
        {
            "name" : "Scene",
            "nodes" : [
                0,
                1,
                2,
                3
            ]
        }
    ],
    "nodes" : [
        {
            "name" : "Light",
            "rotation" : [
                0.16907575726509094,
                0.7558803558349609,
                -0.27217137813568115,
                0.570947527885437
            ],
            "translation" : [
                4.076245307922363,
                5.903861999511719,
                -1.0054539442062378
            ]
        },
        {
            "name" : "Camera",
            "rotation" : [
                0.483536034822464,
                0.33687159419059753,
                -0.20870360732078552,
                0.7804827094078064
            ],
            "translation" : [
                7.358891487121582,
                4.958309173583984,
                6.925790786743164
            ]
        },
        {
            "mesh" : 0,
            "name" : "Bottle",
            "scale" : [
                0.009999999776482582,
                0.009999999776482582,
                0.009999999776482582
            ],
            "translation" : [
                0,
                -0.00030019282712601125,
                0
            ]
        },
        {
            "mesh" : 1,
            "name" : "Cap",
            "scale" : [
                0.009999999776482582,
                0.009999999776482582,
                0.009999999776482582
            ],
            "translation" : [
                0,
                0.0751081258058548,
                0
            ]
        }
    ],
    "materials" : [
        {
            "doubleSided" : true,
            "name" : "Material #0",
            "pbrMetallicRoughness" : {
                "baseColorTexture" : {
                    "index" : 0
                },
                "roughnessFactor" : 0.858578622341156
            }
        },
        {
            "doubleSided" : true,
            "name" : "Cap.001",
            "pbrMetallicRoughness" : {
                "baseColorTexture" : {
                    "index" : 1
                },
                "roughnessFactor" : 0.858578622341156
            }
        }
    ],
    "meshes" : [
        {
            "name" : "Mesh",
            "primitives" : [
                {
                    "attributes" : {
                        "POSITION" : 0,
                        "NORMAL" : 1,
                        "TEXCOORD_0" : 2
                    },
                    "indices" : 3,
                    "material" : 0
                }
            ]
        },
        {
            "name" : "Mesh.002",
            "primitives" : [
                {
                    "attributes" : {
                        "POSITION" : 4,
                        "NORMAL" : 5,
                        "TEXCOORD_0" : 6
                    },
                    "indices" : 7,
                    "material" : 1
                }
            ]
        }
    ],
    "textures" : [
        {
            "sampler" : 0,
            "source" : 0
        },
        {
            "sampler" : 0,
            "source" : 1
        }
    ],
    "images" : [
        {
            "bufferView" : 4,
            "mimeType" : "image/png",
            "name" : "BottleCompleteMap"
        },
        {
            "bufferView" : 9,
            "mimeType" : "image/png",
            "name" : "Map #1"
        }
    ],
    "accessors" : [
        {
            "bufferView" : 0,
            "componentType" : 5126,
            "count" : 1462,
            "max" : [
                2.06154465675354,
                6.545094966888428,
                2.061544418334961
            ],
            "min" : [
                -2.061544418334961,
                -2.084321417176148e-14,
                -2.06154465675354
            ],
            "type" : "VEC3"
        },
        {
            "bufferView" : 1,
            "componentType" : 5126,
            "count" : 1462,
            "type" : "VEC3"
        },
        {
            "bufferView" : 2,
            "componentType" : 5126,
            "count" : 1462,
            "type" : "VEC2"
        },
        {
            "bufferView" : 3,
            "componentType" : 5123,
            "count" : 6912,
            "type" : "SCALAR"
        },
        {
            "bufferView" : 5,
            "componentType" : 5126,
            "count" : 520,
            "max" : [
                1.4489948749542236,
                0.9957377910614014,
                1.4489948749542236
            ],
            "min" : [
                -1.4489951133728027,
                -0.9957373738288879,
                -1.4489953517913818
            ],
            "type" : "VEC3"
        },
        {
            "bufferView" : 6,
            "componentType" : 5126,
            "count" : 520,
            "type" : "VEC3"
        },
        {
            "bufferView" : 7,
            "componentType" : 5126,
            "count" : 520,
            "type" : "VEC2"
        },
        {
            "bufferView" : 8,
            "componentType" : 5123,
            "count" : 2304,
            "type" : "SCALAR"
        }
    ],
    "bufferViews" : [
        {
            "buffer" : 0,
            "byteLength" : 17544,
            "byteOffset" : 0
        },
        {
            "buffer" : 0,
            "byteLength" : 17544,
            "byteOffset" : 17544
        },
        {
            "buffer" : 0,
            "byteLength" : 11696,
            "byteOffset" : 35088
        },
        {
            "buffer" : 0,
            "byteLength" : 13824,
            "byteOffset" : 46784
        },
        {
            "buffer" : 0,
            "byteLength" : 943678,
            "byteOffset" : 60608
        },
        {
            "buffer" : 0,
            "byteLength" : 6240,
            "byteOffset" : 1004288
        },
        {
            "buffer" : 0,
            "byteLength" : 6240,
            "byteOffset" : 1010528
        },
        {
            "buffer" : 0,
            "byteLength" : 4160,
            "byteOffset" : 1016768
        },
        {
            "buffer" : 0,
            "byteLength" : 4608,
            "byteOffset" : 1020928
        },
        {
            "buffer" : 0,
            "byteLength" : 945410,
            "byteOffset" : 1025536
        }
    ],
    "samplers" : [
        {
            "magFilter" : 9729,
            "minFilter" : 9987
        }
    ],
    "buffers" : [
        {
            "byteLength" : 1970948,
            "uri" : "data:application/octet-stream;base64,"
        }
    ]
}
